<svg width="33" height="33" viewBox="0 0 33 33" fill="none" xmlns="http://www.w3.org/2000/svg">
<path d="M26.5495 7.49219C27.0775 7.82686 27.5124 8.28969 27.8135 8.8376C28.1146 9.38551 28.2723 10.0007 28.2717 10.6259V22.6259C28.2717 25.9402 25.586 28.6259 22.2717 28.6259H10.2717C9.64612 28.6263 9.03056 28.4685 8.48228 28.1672C7.93401 27.8658 7.47081 27.4308 7.13574 26.9025L7.27517 26.9093L7.4146 26.9116H22.2717C23.4084 26.9116 24.4985 26.4601 25.3022 25.6564C26.1059 24.8526 26.5575 23.7625 26.5575 22.6259V7.76876C26.5574 7.67651 26.5547 7.58429 26.5495 7.49219ZM9.98603 16.0545C9.68292 16.0545 9.39223 16.1749 9.17791 16.3892C8.96358 16.6035 8.84317 16.8942 8.84317 17.1973C8.84317 17.5004 8.96358 17.7911 9.17791 18.0055C9.39223 18.2198 9.68292 18.3402 9.98603 18.3402C10.2891 18.3402 10.5798 18.2198 10.7941 18.0055C11.0085 17.7911 11.1289 17.5004 11.1289 17.1973C11.1289 16.8942 11.0085 16.6035 10.7941 16.3892C10.5798 16.1749 10.2891 16.0545 9.98603 16.0545Z" fill="white"/>
<path d="M21.6997 4.05469H7.41399C6.4289 4.05469 5.48416 4.44601 4.7876 5.14258C4.09103 5.83914 3.69971 6.78388 3.69971 7.76897V22.0547C3.69971 22.5425 3.79578 23.0254 3.98244 23.4761C4.1691 23.9267 4.44269 24.3362 4.7876 24.6811C5.1325 25.026 5.54196 25.2996 5.9926 25.4862C6.44323 25.6729 6.92623 25.769 7.41399 25.769H21.6997C22.1875 25.769 22.6705 25.6729 23.1211 25.4862C23.5717 25.2996 23.9812 25.026 24.3261 24.6811C24.671 24.3362 24.9446 23.9267 25.1313 23.4761C25.3179 23.0254 25.414 22.5425 25.414 22.0547V7.76897C25.414 7.28121 25.3179 6.79822 25.1313 6.34758C24.9446 5.89694 24.671 5.48748 24.3261 5.14258C23.9812 4.79767 23.5717 4.52408 23.1211 4.33742C22.6705 4.15076 22.1875 4.05469 21.6997 4.05469ZM7.12828 17.1975C7.12828 16.4398 7.4293 15.7131 7.96512 15.1772C8.50093 14.6414 9.22766 14.3404 9.98542 14.3404C10.7432 14.3404 11.4699 14.6414 12.0057 15.1772C12.5415 15.7131 12.8426 16.4398 12.8426 17.1975C12.8426 17.9553 12.5415 18.682 12.0057 19.2178C11.4699 19.7537 10.7432 20.0547 9.98542 20.0547C9.22766 20.0547 8.50093 19.7537 7.96512 19.2178C7.4293 18.682 7.12828 17.9553 7.12828 17.1975ZM15.1283 16.9118C15.1283 16.6845 15.2186 16.4665 15.3793 16.3057C15.5401 16.145 15.7581 16.0547 15.9854 16.0547H21.6997C21.927 16.0547 22.1451 16.145 22.3058 16.3057C22.4665 16.4665 22.5568 16.6845 22.5568 16.9118C22.5568 17.1392 22.4665 17.3572 22.3058 17.5179C22.1451 17.6787 21.927 17.769 21.6997 17.769H15.9854C15.7581 17.769 15.5401 17.6787 15.3793 17.5179C15.2186 17.3572 15.1283 17.1392 15.1283 16.9118ZM7.12828 11.1975C7.12828 10.9702 7.21858 10.7522 7.37933 10.5915C7.54007 10.4307 7.75809 10.3404 7.98542 10.3404H21.6997C21.927 10.3404 22.1451 10.4307 22.3058 10.5915C22.4665 10.7522 22.5568 10.9702 22.5568 11.1975C22.5568 11.4249 22.4665 11.6429 22.3058 11.8036C22.1451 11.9644 21.927 12.0547 21.6997 12.0547H7.98542C7.75809 12.0547 7.54007 11.9644 7.37933 11.8036C7.21858 11.6429 7.12828 11.4249 7.12828 11.1975Z" fill="white"/>
</svg>
