<svg width="32" height="32" viewBox="0 0 32 32" fill="none" xmlns="http://www.w3.org/2000/svg">
<path d="M23.748 25.164L20.906 22.32C19.5038 23.4115 17.7769 24.0029 16 24C14.2231 24.0029 12.4962 23.4115 11.094 22.32L8.252 25.164C10.4162 26.9991 13.1626 28.0043 16 28C18.954 28 21.66 26.932 23.748 25.164ZM25.164 23.748C26.9991 21.5838 28.0043 18.8374 28 16C28 13.046 26.932 10.34 25.164 8.252L22.32 11.094C23.372 12.45 24 14.152 24 16C24 17.848 23.372 19.55 22.32 20.906L25.164 23.748ZM23.748 6.836C21.5838 5.00094 18.8374 3.99567 16 4C13.046 4 10.34 5.068 8.252 6.836L11.094 9.68C12.4962 8.58849 14.2231 7.99715 16 8C17.848 8 19.55 8.628 20.906 9.68L23.748 6.836ZM6.836 8.252C5.00094 10.4162 3.99567 13.1626 4 16C4 18.954 5.068 21.66 6.836 23.748L9.68 20.906C8.58849 19.5038 7.99715 17.7769 8 16C8 14.152 8.628 12.45 9.68 11.094L6.836 8.252ZM19.876 20.58C20.1295 20.365 20.365 20.1295 20.58 19.876C21.466 18.83 22 17.476 22 16C22.0016 15.1278 21.8123 14.2659 21.4454 13.4747C21.0785 12.6835 20.5428 11.9822 19.876 11.42C18.7936 10.5015 17.4196 9.99809 16 10C15.1278 9.99838 14.2659 10.1877 13.4747 10.5546C12.6835 10.9215 11.9822 11.4572 11.42 12.124C10.534 13.17 10 14.524 10 16C9.99838 16.8722 10.1877 17.7341 10.5546 18.5253C10.9215 19.3165 11.4572 20.0178 12.124 20.58C13.17 21.466 14.524 22 16 22C17.478 22 18.83 21.466 19.876 20.58ZM16 30C12.287 30 8.72601 28.525 6.1005 25.8995C3.475 23.274 2 19.713 2 16C2 12.287 3.475 8.72601 6.1005 6.1005C8.72601 3.475 12.287 2 16 2C19.713 2 23.274 3.475 25.8995 6.1005C28.525 8.72601 30 12.287 30 16C30 19.713 28.525 23.274 25.8995 25.8995C23.274 28.525 19.713 30 16 30Z" fill="#4E4E4E"/>
</svg>

