<svg width="32" height="32" viewBox="0 0 32 32" fill="none" xmlns="http://www.w3.org/2000/svg">
<path d="M18.6667 10.6673V8.00065C18.6667 7.29341 18.3857 6.61513 17.8856 6.11503C17.3855 5.61494 16.7072 5.33398 16 5.33398H6.66667C5.95942 5.33398 5.28115 5.61494 4.78105 6.11503C4.28095 6.61513 4 7.29341 4 8.00065V24.0007C4 24.7079 4.28095 25.3862 4.78105 25.8863C5.28115 26.3864 5.95942 26.6673 6.66667 26.6673H16C16.7072 26.6673 17.3855 26.3864 17.8856 25.8863C18.3857 25.3862 18.6667 24.7079 18.6667 24.0007V21.334" stroke="#4E4E4E" stroke-width="2" stroke-linecap="round" stroke-linejoin="round"/>
<path d="M12 16H28M28 16L24 12M28 16L24 20" stroke="#4E4E4E" stroke-width="2" stroke-linecap="round" stroke-linejoin="round"/>
</svg>
