<svg width="94" height="27" viewBox="0 0 94 27" fill="none" xmlns="http://www.w3.org/2000/svg">
<path d="M5.67796 10.9636L3.53809 9.88533L7.35177 2.19531H15.4442V4.60661H8.8303L5.67796 10.9636Z" fill="white"/>
<path d="M22.2632 20.4273L20.2353 19.1497L23.7212 13.5268L20.2188 7.52386L22.2802 6.30078L26.5176 13.5641L22.2632 20.4273Z" fill="white"/>
<path d="M7.42878 25.3228L3.19043 18.0585L5.25189 16.8359L8.7539 22.8379L15.3815 22.4859L15.5071 24.8942L7.42878 25.3228Z" fill="white"/>
<path d="M14.0898 18.2268C16.7614 18.2268 18.9272 16.0433 18.9272 13.3497C18.9272 10.6562 16.7614 8.47266 14.0898 8.47266C11.4182 8.47266 9.25244 10.6562 9.25244 13.3497C9.25244 16.0433 11.4182 18.2268 14.0898 18.2268Z" fill="#2983FF"/>
<path d="M31.959 6.9043H35.5745L40.7074 15.3632H40.7415V6.9043H43.402V19.0771H39.9229L34.6531 10.4115H34.619V19.0771H31.9585V6.9043H31.959Z" fill="#000050"/>
<path d="M45.9595 6.90479H54.162V9.3804H48.6195V11.6498H53.8547V14.1259H48.6195V16.6015H54.4688V19.0771H45.959V6.9043L45.9595 6.90479Z" fill="#000050"/>
<path d="M56.6011 6.9043H60.5915C61.5577 6.9043 62.4757 7.0133 63.3455 7.23081C64.2153 7.44881 64.974 7.80135 65.6222 8.28842C66.2704 8.77598 66.7847 9.40888 67.1655 10.1881C67.5464 10.9678 67.7368 11.9135 67.7368 13.0251C67.7368 14.011 67.5517 14.8791 67.1826 15.6298C66.813 16.3806 66.3157 17.011 65.6904 17.5212C65.0651 18.0313 64.3434 18.4182 63.5247 18.6819C62.7061 18.9455 61.8475 19.0771 60.9495 19.0771H56.6006V6.9043H56.6011ZM59.2615 16.6015H60.6427C61.2568 16.6015 61.828 16.5387 62.3564 16.4125C62.8848 16.2863 63.3426 16.0771 63.7293 15.785C64.1155 15.4928 64.4198 15.1089 64.6419 14.6331C64.8635 14.1578 64.9745 13.576 64.9745 12.8881C64.9745 12.2925 64.8635 11.7735 64.6419 11.3321C64.4203 10.8912 64.1218 10.5269 63.7468 10.2406C63.3718 9.95438 62.9311 9.73932 62.4251 9.59595C61.9191 9.45258 61.3873 9.38089 60.8307 9.38089H59.262V16.602L59.2615 16.6015Z" fill="#000050"/>
<path d="M70.2945 16.8261C70.5901 17.3417 70.9739 17.7261 71.4458 17.978C71.9172 18.2304 72.4544 18.3561 73.0573 18.3561C73.4323 18.3561 73.7849 18.2986 74.1146 18.1842C74.4443 18.0698 74.7311 17.9093 74.9756 17.7026C75.22 17.4964 75.4129 17.2469 75.5556 16.9548C75.6978 16.6626 75.7689 16.3332 75.7689 15.9659C75.7689 15.5422 75.6807 15.1921 75.5044 14.9171C75.3282 14.6422 75.092 14.4158 74.7968 14.2381C74.5012 14.0604 74.1686 13.9086 73.799 13.7824C73.4293 13.6568 73.0485 13.5306 72.6565 13.4044C72.2644 13.2787 71.8831 13.1353 71.514 12.9748C71.1443 12.8142 70.8117 12.605 70.5161 12.3473C70.2205 12.0895 69.9843 11.7659 69.8085 11.3761C69.6322 10.9862 69.5441 10.505 69.5441 9.93155C69.5441 9.39292 69.6493 8.91469 69.8596 8.49587C70.07 8.07754 70.3544 7.72795 70.7124 7.44709C71.0703 7.16624 71.4823 6.95413 71.9489 6.81076C72.4149 6.66788 72.9039 6.5957 73.4157 6.5957C74.0751 6.5957 74.6863 6.71354 75.2488 6.94824C75.8117 7.18343 76.2978 7.57574 76.7068 8.12614L75.7348 8.83122C75.4504 8.43007 75.1178 8.12909 74.7369 7.92876C74.3561 7.72844 73.9042 7.62778 73.3811 7.62778C73.0169 7.62778 72.6706 7.67639 72.3409 7.7741C72.0112 7.87181 71.7239 8.01469 71.4799 8.20421C71.2354 8.39325 71.0392 8.63138 70.8916 8.91763C70.7436 9.20438 70.67 9.54268 70.67 9.93204C70.67 10.5399 70.8234 11.0068 71.1302 11.3333C71.437 11.6599 71.8208 11.9181 72.2815 12.1072C72.7417 12.2962 73.2419 12.4626 73.7819 12.606C74.322 12.7494 74.8222 12.9414 75.2829 13.182C75.7431 13.4225 76.1268 13.7579 76.4341 14.1875C76.7409 14.6176 76.8943 15.2108 76.8943 15.9669C76.8943 16.5168 76.7921 17.0044 76.5875 17.4286C76.383 17.8528 76.1074 18.2108 75.7606 18.5029C75.4139 18.7955 75.0131 19.016 74.5582 19.1648C74.1034 19.3135 73.6315 19.3882 73.143 19.3882C72.3472 19.3882 71.6138 19.2477 70.9432 18.9669C70.2721 18.686 69.6984 18.2132 69.2207 17.5484L70.295 16.8261H70.2945Z" fill="white"/>
<path d="M79.4521 6.9043H80.5776V19.0771H79.4521V6.9043Z" fill="white"/>
<path d="M84.2106 16.8261C84.5062 17.3417 84.8899 17.7261 85.3618 17.978C85.8332 18.2304 86.3704 18.3561 86.9733 18.3561C87.3483 18.3561 87.7009 18.2986 88.0306 18.1842C88.3603 18.0698 88.6471 17.9093 88.8916 17.7026C89.1361 17.4964 89.3289 17.2469 89.4716 16.9548C89.6138 16.6626 89.6849 16.3332 89.6849 15.9659C89.6849 15.5422 89.5968 15.1921 89.4205 14.9171C89.2442 14.6422 89.008 14.4158 88.7129 14.2381C88.4172 14.0604 88.0846 13.9086 87.715 13.7824C87.3454 13.6568 86.9645 13.5306 86.5725 13.4044C86.1805 13.2787 85.7991 13.1353 85.43 12.9748C85.0604 12.8142 84.7277 12.605 84.4321 12.3473C84.1365 12.0895 83.9003 11.7659 83.7245 11.3761C83.5482 10.9862 83.4601 10.505 83.4601 9.93155C83.4601 9.39292 83.5653 8.91469 83.7757 8.49587C83.986 8.07754 84.2705 7.72795 84.6284 7.44709C84.9863 7.16624 85.3983 6.95413 85.8649 6.81076C86.3309 6.66788 86.8199 6.5957 87.3317 6.5957C87.9911 6.5957 88.6023 6.71354 89.1648 6.94824C89.7278 7.18343 90.2138 7.57574 90.6229 8.12614L89.6508 8.83122C89.3664 8.43007 89.0338 8.12909 88.653 7.92876C88.2721 7.72844 87.8202 7.62778 87.2972 7.62778C86.9329 7.62778 86.5866 7.67639 86.2569 7.7741C85.9272 7.87181 85.6399 8.01469 85.3959 8.20421C85.1514 8.39325 84.9552 8.63138 84.8076 8.91763C84.6596 9.20438 84.586 9.54268 84.586 9.93204C84.586 10.5399 84.7394 11.0068 85.0462 11.3333C85.353 11.6599 85.7368 11.9181 86.1975 12.1072C86.6582 12.2962 87.1579 12.4626 87.6979 12.606C88.238 12.7494 88.7382 12.9414 89.1989 13.182C89.6591 13.4225 90.0428 13.7579 90.3501 14.1875C90.657 14.6176 90.8104 15.2108 90.8104 15.9669C90.8104 16.5168 90.7081 17.0044 90.5035 17.4286C90.299 17.8528 90.0234 18.2108 89.6766 18.5029C89.3299 18.7955 88.9291 19.016 88.4742 19.1648C88.0194 19.3135 87.5475 19.3882 87.059 19.3882C86.2633 19.3882 85.5298 19.2477 84.8592 18.9669C84.1881 18.686 83.6145 18.2132 83.1367 17.5484L84.211 16.8261H84.2106Z" fill="white"/>
</svg>
