<svg width="102" height="29" viewBox="0 0 102 29" fill="none" xmlns="http://www.w3.org/2000/svg">
<path d="M6.16134 11.7752L3.83936 10.6171L7.97761 2.35742H16.7588V4.94733H9.58197L6.16134 11.7752Z" fill="white"/>
<path d="M24.1579 21.9405L21.9574 20.5683L25.74 14.5289L21.9395 8.08125L24.1764 6.76758L28.7744 14.5689L24.1579 21.9405Z" fill="white"/>
<path d="M8.06097 27.1976L3.46191 19.3952L5.69882 18.082L9.49887 24.5286L16.6905 24.1505L16.8268 26.7372L8.06097 27.1976Z" fill="white"/>
<path d="M15.2891 19.5783C18.1881 19.5783 20.5381 17.233 20.5381 14.3399C20.5381 11.4469 18.1881 9.10156 15.2891 9.10156C12.3901 9.10156 10.04 11.4469 10.04 14.3399C10.04 17.233 12.3901 19.5783 15.2891 19.5783Z" fill="#2983FF"/>
<path d="M34.6788 7.41602H38.6019L44.1717 16.5015H44.2087V7.41602H47.0956V20.4905H43.3204L37.6021 11.183H37.5651V20.4905H34.6782V7.41602H34.6788Z" fill="white"/>
<path d="M49.8711 7.41654H58.7717V10.0755H52.7575V12.513H58.4383V15.1726H52.7575V17.8315H59.1047V20.4905H49.8706V7.41602L49.8711 7.41654Z" fill="white"/>
<path d="M61.418 7.41602H65.7481C66.7965 7.41602 67.7926 7.53309 68.7364 7.76672C69.6803 8.00087 70.5036 8.37952 71.2069 8.90267C71.9103 9.42634 72.4683 10.1061 72.8816 10.9431C73.2948 11.7805 73.5014 12.7962 73.5014 13.9902C73.5014 15.0491 73.3006 15.9815 72.9001 16.7879C72.499 17.5942 71.9594 18.2714 71.2809 18.8193C70.6024 19.3672 69.8192 19.7828 68.9309 20.066C68.0426 20.3492 67.111 20.4905 66.1365 20.4905H61.4175V7.41602H61.418ZM64.3049 17.8315H65.8036C66.4699 17.8315 67.0898 17.764 67.6632 17.6285C68.2365 17.493 68.7333 17.2683 69.1529 16.9545C69.5719 16.6407 69.9022 16.2283 70.1432 15.7173C70.3836 15.2068 70.5041 14.5819 70.5041 13.8431C70.5041 13.2034 70.3836 12.6459 70.1432 12.1718C69.9027 11.6982 69.5788 11.3069 69.1719 10.9995C68.765 10.692 68.2867 10.461 67.7377 10.307C67.1886 10.1531 66.6116 10.0761 66.0076 10.0761H64.3054V17.8321L64.3049 17.8315Z" fill="white"/>
<path d="M76.277 18.0722C76.5978 18.626 77.0142 19.0389 77.5263 19.3094C78.0378 19.5805 78.6207 19.7155 79.2749 19.7155C79.6818 19.7155 80.0644 19.6538 80.4222 19.5309C80.7799 19.4081 81.0912 19.2356 81.3565 19.0136C81.6217 18.7921 81.831 18.5242 81.9858 18.2104C82.1401 17.8966 82.2173 17.5428 82.2173 17.1483C82.2173 16.6932 82.1216 16.3172 81.9303 16.0218C81.7391 15.7265 81.4828 15.4834 81.1625 15.2925C80.8418 15.1016 80.4808 14.9386 80.0797 14.8031C79.6786 14.6681 79.2654 14.5325 78.84 14.397C78.4146 14.262 78.0008 14.108 77.6003 13.9356C77.1992 13.7631 76.8382 13.5384 76.5175 13.2616C76.1967 12.9847 75.9404 12.6372 75.7496 12.2184C75.5583 11.7997 75.4627 11.2829 75.4627 10.6669C75.4627 10.0884 75.5768 9.57475 75.8051 9.1249C76.0334 8.67558 76.342 8.3001 76.7304 7.99844C77.1189 7.69679 77.5659 7.46896 78.0722 7.31497C78.5779 7.16151 79.1084 7.08398 79.6638 7.08398C80.3794 7.08398 81.0426 7.21055 81.6529 7.46263C82.2638 7.71524 82.7912 8.13661 83.2351 8.72779L82.1803 9.48509C81.8717 9.05423 81.5108 8.73096 81.0975 8.51579C80.6843 8.30062 80.1939 8.19251 79.6263 8.19251C79.2311 8.19251 78.8553 8.24472 78.4976 8.34967C78.1398 8.45462 77.828 8.60808 77.5633 8.81164C77.298 9.01468 77.085 9.27045 76.9249 9.57791C76.7643 9.88589 76.6845 10.2493 76.6845 10.6675C76.6845 11.3203 76.8509 11.8219 77.1838 12.1726C77.5168 12.5233 77.9332 12.8007 78.4331 13.0037C78.9325 13.2067 79.4752 13.3855 80.0612 13.5395C80.6473 13.6935 81.19 13.8997 81.6899 14.1581C82.1893 14.4165 82.6057 14.7767 82.9391 15.2382C83.2721 15.7001 83.4385 16.3372 83.4385 17.1493C83.4385 17.74 83.3276 18.2637 83.1056 18.7193C82.8837 19.175 82.5846 19.5594 82.2083 19.8732C81.8321 20.1875 81.3971 20.4243 80.9036 20.5841C80.41 20.7439 79.8979 20.824 79.3679 20.824C78.5044 20.824 77.7086 20.6732 76.9809 20.3716C76.2527 20.0699 75.6302 19.5621 75.1118 18.848L76.2776 18.0722H76.277Z" fill="white"/>
<path d="M86.2144 7.41602H87.4356V20.4905H86.2144V7.41602Z" fill="white"/>
<path d="M91.3771 18.0722C91.6979 18.626 92.1143 19.0389 92.6264 19.3094C93.1379 19.5805 93.7208 19.7155 94.375 19.7155C94.7819 19.7155 95.1645 19.6538 95.5223 19.5309C95.88 19.4081 96.1913 19.2356 96.4566 19.0136C96.7218 18.7921 96.9311 18.5242 97.0859 18.2104C97.2402 17.8966 97.3174 17.5428 97.3174 17.1483C97.3174 16.6932 97.2217 16.3172 97.0304 16.0218C96.8391 15.7265 96.5829 15.4834 96.2626 15.2925C95.9418 15.1016 95.5809 14.9386 95.1798 14.8031C94.7787 14.6681 94.3655 14.5325 93.9401 14.397C93.5147 14.262 93.1009 14.108 92.7004 13.9356C92.2993 13.7631 91.9383 13.5384 91.6176 13.2616C91.2968 12.9847 91.0405 12.6372 90.8497 12.2184C90.6584 11.7997 90.5628 11.2829 90.5628 10.6669C90.5628 10.0884 90.6769 9.57475 90.9052 9.1249C91.1335 8.67558 91.4421 8.3001 91.8305 7.99844C92.219 7.69679 92.666 7.46896 93.1723 7.31497C93.678 7.16151 94.2085 7.08398 94.7639 7.08398C95.4795 7.08398 96.1427 7.21055 96.753 7.46263C97.3639 7.71524 97.8913 8.13661 98.3352 8.72779L97.2804 9.48509C96.9718 9.05423 96.6109 8.73096 96.1976 8.51579C95.7844 8.30062 95.294 8.19251 94.7264 8.19251C94.3311 8.19251 93.9554 8.24472 93.5977 8.34967C93.2399 8.45462 92.9281 8.60808 92.6634 8.81164C92.3981 9.01468 92.1851 9.27045 92.025 9.57791C91.8644 9.88589 91.7846 10.2493 91.7846 10.6675C91.7846 11.3203 91.951 11.8219 92.2839 12.1726C92.6169 12.5233 93.0333 12.8007 93.5332 13.0037C94.0331 13.2067 94.5753 13.3855 95.1613 13.5395C95.7474 13.6935 96.2901 13.8997 96.79 14.1581C97.2894 14.4165 97.7058 14.7767 98.0392 15.2382C98.3722 15.7001 98.5386 16.3372 98.5386 17.1493C98.5386 17.74 98.4277 18.2637 98.2057 18.7193C97.9838 19.175 97.6847 19.5594 97.3084 19.8732C96.9322 20.1875 96.4972 20.4243 96.0037 20.5841C95.5101 20.7439 94.998 20.824 94.468 20.824C93.6045 20.824 92.8087 20.6732 92.081 20.3716C91.3528 20.0699 90.7303 19.5621 90.2119 18.848L91.3777 18.0722H91.3771Z" fill="white"/>
</svg>
